HIERARCHY
ROOT root
{
	OFFSET 0.000000 0.000000 0.000000
	CHANNELS 6 Xposition Yposition Zposition Zrotation Yrotation Xrotation
	JOINT lhip
	{
		OFFSET 0.058581 -0.082280 -0.017664
		CHANNELS 3 Zrotation Yrotation Xrotation
		JOINT lknee
		{
			OFFSET 0.043451 -0.386469 0.008037
			CHANNELS 3 Zrotation Yrotation Xrotation
			JOINT lankle
			{
				OFFSET -0.014790 -0.426874 -0.037428
				CHANNELS 3 Zrotation Yrotation Xrotation
				JOINT ltoe
				{
					OFFSET 0.041054 -0.060286 0.122042
					CHANNELS 3 Zrotation Yrotation Xrotation
					End Site
					{
						OFFSET 0.000000 0.000000 0.000000
					}
				}
			}
		}
	}
	JOINT rhip
	{
		OFFSET -0.060310 -0.090513 -0.013543
		CHANNELS 3 Zrotation Yrotation Xrotation
		JOINT rknee
		{
			OFFSET -0.043257 -0.383688 -0.004843
			CHANNELS 3 Zrotation Yrotation Xrotation
			JOINT rankle
			{
				OFFSET 0.019056 -0.420046 -0.034562
				CHANNELS 3 Zrotation Yrotation Xrotation
				JOINT rtoe
				{
					OFFSET -0.034840 -0.062106 0.130323
					CHANNELS 3 Zrotation Yrotation Xrotation
					End Site
					{
						OFFSET 0.000000 0.000000 0.000000
					}
				}
			}
		}
	}
	JOINT lowerback
	{
		OFFSET 0.004439 0.124404 -0.038385
		CHANNELS 3 Zrotation Yrotation Xrotation
		JOINT upperback
		{
			OFFSET 0.004488 0.137956 0.026820
			CHANNELS 3 Zrotation Yrotation Xrotation
			JOINT chest
			{
				OFFSET -0.002265 0.056032 0.002855
				CHANNELS 3 Zrotation Yrotation Xrotation
				JOINT lowerneck
				{
					OFFSET -0.013390 0.211636 -0.033468
					CHANNELS 3 Zrotation Yrotation Xrotation
					JOINT upperneck
					{
						OFFSET 0.010113 0.088937 0.050410
						CHANNELS 3 Zrotation Yrotation Xrotation
						End Site
						{
							OFFSET 0.000000 0.000000 0.000000
						}
					}
				}
				JOINT lclavicle
				{
					OFFSET 0.071702 0.114000 -0.018898
					CHANNELS 3 Zrotation Yrotation Xrotation
					JOINT lshoulder
					{
						OFFSET 0.122921 0.045205 -0.019046
						CHANNELS 3 Zrotation Yrotation Xrotation
						JOINT lelbow
						{
							OFFSET 0.255332 -0.015649 -0.022946
							CHANNELS 3 Zrotation Yrotation Xrotation
							JOINT lwrist
							{
								OFFSET 0.265709 0.012698 -0.007375
								CHANNELS 3 Zrotation Yrotation Xrotation
								End Site
								{
									OFFSET 0.000000 0.000000 0.000000
								}
							}
						}
					}
				}
				JOINT rclavicle
				{
					OFFSET -0.082954 0.112472 -0.023707
					CHANNELS 3 Zrotation Yrotation Xrotation
					JOINT rshoulder
					{
						OFFSET -0.113228 0.046853 -0.008472
						CHANNELS 3 Zrotation Yrotation Xrotation
						JOINT relbow
						{
							OFFSET -0.260127 -0.014369 -0.031269
							CHANNELS 3 Zrotation Yrotation Xrotation
							JOINT rwrist
							{
								OFFSET -0.269108 0.006794 -0.006027
								CHANNELS 3 Zrotation Yrotation Xrotation
								End Site
								{
									OFFSET 0.000000 0.000000 0.000000
								}
							}
						}
					}
				}
			}
		}
	}
}
MOTION
Frames: 5
Frame Time: 0.033333
0.634027 0.898320 0.997644 96.287255 -0.579962 85.376471 -5.868000 -2.294876 10.681209 -3.441086 -17.303524 5.447063 3.440209 12.045567 -17.974580 0.000000 -0.000000 0.000000 -1.375696 -2.705008 -18.093953 -0.394280 -4.559904 17.475942 3.631108 -14.574309 -8.453256 0.000000 -0.000000 0.000000 -5.357431 -2.024597 -2.797618 2.176224 -5.347654 16.971616 -0.553427 -1.857566 -4.831057 0.350368 4.917609 10.244175 6.440712 4.179037 9.849166 -23.580518 -6.255960 2.074027 -50.171523 -20.082017 18.334677 9.770408 -29.490343 -5.345907 -18.477369 -11.973170 9.190764 22.173687 1.071818 2.989304 66.058162 -9.270662 12.226620 -18.851028 19.926883 -7.928394 17.520955 7.643194 -15.055255 
0.670329 0.899844 0.991470 96.938152 -0.993018 85.935870 -6.019363 -2.054015 11.792330 -3.885521 -17.999471 6.602149 2.935116 12.052242 -20.019811 0.000000 -0.000000 0.000000 -0.959759 -3.489729 -18.396965 -0.560652 -5.572394 8.727770 3.891857 -14.840080 -8.142423 0.000000 -0.000000 0.000000 -5.680907 -2.188085 -3.650242 2.471872 -5.666819 17.355451 -0.339577 -2.066420 -4.927289 0.917498 4.866576 10.716917 7.013449 3.835960 10.666727 -23.630545 -5.505927 2.316929 -49.507650 -21.745751 18.039258 10.763761 -32.859384 -7.855953 -17.885626 -12.232309 9.645674 22.209472 0.571840 3.027061 66.293233 -9.667236 12.417638 -18.634836 19.519804 -7.398674 18.317505 7.407146 -14.654380 
0.707547 0.900713 0.984762 97.290906 -1.128537 86.542785 -5.804112 -1.875296 12.649715 -4.504802 -18.343397 8.296792 2.443576 11.734450 -22.038878 0.000000 -0.000000 0.000000 -0.196645 -3.405385 -18.303699 -0.510939 -5.345227 1.796667 4.373223 -13.983076 -7.863887 0.000000 -0.000000 0.000000 -5.408726 -2.386887 -4.417990 2.717131 -5.826984 17.591147 -0.322196 -2.218717 -5.030460 1.341520 4.731714 11.056678 7.212200 3.458703 10.762288 -23.902732 -4.424251 2.532062 -49.091794 -22.726246 17.758883 12.021262 -36.569815 -10.120243 -17.087411 -12.579042 9.816814 22.260672 0.097519 3.333849 66.362533 -9.571899 12.531074 -18.508113 19.416389 -6.977417 18.648042 7.225610 -14.433344 
0.745941 0.901699 0.978126 97.698569 -1.382760 86.974688 -5.855921 -2.059912 13.632920 -5.143960 -18.703148 10.366422 1.914034 11.715789 -23.684459 0.000000 -0.000000 0.000000 0.295550 -2.909686 -18.611268 -0.574454 -4.990958 -0.419878 4.693605 -13.592860 -8.470742 0.000000 -0.000000 0.000000 -5.123769 -2.699077 -4.962341 2.920497 -5.788016 17.749839 -0.354938 -2.306778 -5.047960 1.584333 4.274670 10.929461 7.225140 3.071841 10.996925 -24.221841 -3.250131 2.620958 -49.031280 -23.197947 17.608136 13.017139 -39.959653 -11.691537 -15.832742 -13.400728 9.827930 22.416830 -0.383181 3.427984 66.240421 -9.334998 12.752729 -18.267827 19.177634 -6.365431 17.872500 7.427226 -13.915941 
0.786372 0.903097 0.972349 98.301119 -1.544882 87.126228 -5.711041 -2.584405 14.714027 -6.220556 -18.948346 13.155820 1.252234 11.409529 -24.278065 0.000000 -0.000000 0.000000 0.374152 -1.985160 -18.686675 -0.218755 -4.374295 1.475340 4.591880 -12.920464 -7.428837 0.000000 -0.000000 0.000000 -4.699355 -3.192423 -5.351794 3.210198 -5.759043 17.906082 -0.430781 -2.232947 -5.027150 1.696688 3.627820 10.915786 6.928357 2.723546 10.811734 -24.639968 -2.273820 2.789626 -49.489247 -22.823313 17.578613 14.079705 -42.847673 -12.350663 -15.180215 -14.180379 9.573008 22.571532 -0.734593 3.423530 65.945370 -9.012790 12.519144 -18.280875 19.001457 -6.307973 17.459461 7.588713 -13.656245 
